<svg width="21" height="20" viewBox="0 0 21 20" fill="none" xmlns="http://www.w3.org/2000/svg">
<path d="M20.2303 15.5622C20.7593 14.487 21.0229 13.3007 20.9991 12.1027C20.9753 10.9046 20.6648 9.72972 20.0936 8.67635C19.5224 7.62298 18.7071 6.72181 17.716 6.04831C16.7249 5.37481 15.5869 4.94859 14.3972 4.80533C14.0026 3.88557 13.428 3.05409 12.7071 2.35986C11.9862 1.66563 11.1337 1.1227 10.1997 0.763057C9.26576 0.403417 8.26926 0.23434 7.26894 0.265789C6.26862 0.297238 5.28471 0.528575 4.37518 0.946172C3.46565 1.36377 2.6489 1.95918 1.97305 2.69732C1.2972 3.43546 0.775918 4.30141 0.439918 5.24413C0.103917 6.18686 -0.0400048 7.1873 0.016631 8.18651C0.0732668 9.18572 0.329315 10.1635 0.769689 11.0622L0.0515644 13.5766C-0.0125172 13.8015 -0.0153244 14.0395 0.043433 14.2659C0.10219 14.4923 0.220378 14.6989 0.385765 14.8643C0.551152 15.0296 0.757731 15.1478 0.984123 15.2066C1.21052 15.2653 1.4485 15.2625 1.67344 15.1985L4.18781 14.4803C4.94654 14.8528 5.76268 15.0947 6.60188 15.1956C7.0019 16.1329 7.58872 16.9787 8.32652 17.6816C9.06431 18.3845 9.9376 18.9297 10.8931 19.2838C11.8486 19.638 12.8662 19.7938 13.8839 19.7416C14.9016 19.6894 15.8979 19.4304 16.8122 18.9803L19.3266 19.6985C19.5515 19.7625 19.7895 19.7653 20.0159 19.7066C20.2423 19.6478 20.4489 19.5296 20.6142 19.3643C20.7796 19.1989 20.8978 18.9923 20.9566 18.7659C21.0153 18.5395 21.0125 18.3015 20.9484 18.0766L20.2303 15.5622ZM4.26844 12.9278C4.19873 12.9278 4.12935 12.9373 4.06219 12.956L1.58625 13.6638L2.29406 11.1878C2.34711 10.9992 2.32423 10.7973 2.23031 10.6253C1.5407 9.35927 1.33041 7.8871 1.63796 6.4786C1.94552 5.07009 2.75032 3.81958 3.90491 2.9562C5.05949 2.09283 6.48653 1.67442 7.92452 1.77764C9.36252 1.88087 10.7152 2.49881 11.7346 3.51824C12.754 4.53768 13.372 5.89032 13.4752 7.32831C13.5784 8.7663 13.16 10.1933 12.2966 11.3479C11.4333 12.5025 10.1827 13.3073 8.77424 13.6149C7.36573 13.9224 5.89357 13.7121 4.6275 13.0225C4.51774 12.9611 4.3942 12.9286 4.26844 12.9278ZM18.7059 15.6878L19.4138 18.1638L16.9378 17.456C16.7492 17.4029 16.5473 17.4258 16.3753 17.5197C14.9928 18.2719 13.3702 18.4512 11.8568 18.0192C10.3433 17.5872 9.05997 16.5784 8.28281 15.2097C9.3098 15.1028 10.3036 14.7847 11.2019 14.2755C12.1001 13.7664 12.8835 13.077 13.5027 12.2508C14.122 11.4246 14.5639 10.4793 14.8005 9.47424C15.0372 8.46919 15.0636 7.42607 14.8781 6.41033C15.7768 6.62213 16.6145 7.03849 17.326 7.62698C18.0375 8.21548 18.6035 8.96025 18.9801 9.80329C19.3567 10.6463 19.5336 11.5649 19.4971 12.4875C19.4606 13.4101 19.2117 14.3119 18.7697 15.1225C18.675 15.2953 18.6521 15.4983 18.7059 15.6878Z" fill="#5F6368"/>
</svg>
