<svg width="21" height="20" viewBox="0 0 21 20" fill="none" xmlns="http://www.w3.org/2000/svg">
<path d="M10.5 5.49998C9.60998 5.49998 8.73995 5.7639 7.99993 6.25837C7.25991 6.75284 6.68313 7.45564 6.34254 8.27791C6.00194 9.10017 5.91283 10.005 6.08646 10.8779C6.2601 11.7508 6.68868 12.5526 7.31801 13.182C7.94735 13.8113 8.74917 14.2399 9.62209 14.4135C10.495 14.5871 11.3998 14.498 12.2221 14.1574C13.0443 13.8168 13.7471 13.2401 14.2416 12.5C14.7361 11.76 15 10.89 15 9.99998C14.9988 8.80689 14.5243 7.66302 13.6806 6.81937C12.837 5.97573 11.6931 5.50122 10.5 5.49998ZM10.5 13C9.90665 13 9.32663 12.824 8.83328 12.4944C8.33994 12.1647 7.95542 11.6962 7.72836 11.148C7.50129 10.5999 7.44188 9.99665 7.55764 9.41471C7.67339 8.83277 7.95912 8.29822 8.37867 7.87866C8.79823 7.4591 9.33278 7.17338 9.91472 7.05763C10.4967 6.94187 11.0999 7.00128 11.648 7.22834C12.1962 7.45541 12.6648 7.83992 12.9944 8.33327C13.324 8.82662 13.5 9.40664 13.5 9.99998C13.5 10.7956 13.1839 11.5587 12.6213 12.1213C12.0587 12.6839 11.2956 13 10.5 13ZM20.8069 8.05092C20.786 7.9453 20.7426 7.84543 20.6797 7.75807C20.6167 7.67072 20.5357 7.59793 20.4422 7.54467L17.6456 5.95092L17.6344 2.79904C17.634 2.69049 17.6101 2.58331 17.5643 2.4849C17.5185 2.38649 17.4519 2.29919 17.3691 2.22904C16.3546 1.37095 15.1864 0.713356 13.9266 0.291232C13.8273 0.257651 13.7222 0.245223 13.6179 0.25475C13.5136 0.264276 13.4124 0.295546 13.3209 0.346545L10.5 1.92342L7.67624 0.343732C7.5847 0.292446 7.48341 0.260941 7.37893 0.251251C7.27445 0.241562 7.1691 0.253905 7.06968 0.287482C5.81059 0.712317 4.64366 1.37246 3.63093 2.23279C3.54822 2.30284 3.48166 2.38999 3.43586 2.48823C3.39006 2.58647 3.3661 2.69347 3.36562 2.80186L3.35156 5.95654L0.554995 7.55029C0.461434 7.60356 0.380437 7.67634 0.317509 7.7637C0.254582 7.85105 0.211198 7.95093 0.190308 8.05654C-0.0656332 9.34268 -0.0656332 10.6667 0.190308 11.9528C0.211198 12.0584 0.254582 12.1583 0.317509 12.2456C0.380437 12.333 0.461434 12.4058 0.554995 12.459L3.35156 14.0528L3.36281 17.2056C3.36315 17.3142 3.38705 17.4213 3.43285 17.5197C3.47866 17.6182 3.54528 17.7055 3.62812 17.7756C4.64256 18.6337 5.81077 19.2913 7.07062 19.7134C7.16983 19.747 7.27498 19.7594 7.37929 19.7499C7.4836 19.7404 7.58476 19.7091 7.67624 19.6581L10.5 18.0765L13.3237 19.6562C13.4355 19.7185 13.5615 19.7508 13.6894 19.75C13.7713 19.75 13.8526 19.7367 13.9303 19.7106C15.1891 19.286 16.3559 18.6265 17.3691 17.7672C17.4518 17.6971 17.5183 17.61 17.5641 17.5117C17.6099 17.4135 17.6339 17.3065 17.6344 17.1981L17.6484 14.0434L20.445 12.4497C20.5386 12.3964 20.6196 12.3236 20.6825 12.2363C20.7454 12.1489 20.7888 12.049 20.8097 11.9434C21.0642 10.6583 21.0632 9.33566 20.8069 8.05092ZM19.4006 11.3237L16.7222 12.8472C16.6048 12.9139 16.5077 13.0111 16.4409 13.1284C16.3866 13.2222 16.3294 13.3215 16.2712 13.4153C16.1968 13.5335 16.1572 13.6703 16.1569 13.81L16.1428 16.8334C15.4229 17.3988 14.6208 17.8509 13.7644 18.174L11.0625 16.6684C10.9503 16.6064 10.8241 16.5741 10.6959 16.5747H10.6781C10.5647 16.5747 10.4503 16.5747 10.3369 16.5747C10.2027 16.5714 10.0701 16.6038 9.9525 16.6684L7.24874 18.1778C6.39047 17.8571 5.5862 17.4072 4.86375 16.8437L4.85343 13.825C4.85297 13.685 4.81335 13.548 4.73906 13.4294C4.68093 13.3356 4.62375 13.2419 4.57031 13.1425C4.50405 13.0233 4.40689 12.9242 4.28906 12.8556L1.60781 11.3284C1.46906 10.4507 1.46906 9.55672 1.60781 8.67904L4.28156 7.15279C4.39891 7.08606 4.49608 6.9889 4.56281 6.87154C4.61718 6.77779 4.67437 6.67842 4.7325 6.58467C4.8069 6.46644 4.84653 6.32967 4.84687 6.18998L4.86093 3.16654C5.58087 2.60118 6.38293 2.14909 7.23937 1.82592L9.9375 3.33154C10.0549 3.39663 10.1877 3.42901 10.3219 3.42529C10.4353 3.42529 10.5497 3.42529 10.6631 3.42529C10.7973 3.42901 10.9301 3.39663 11.0475 3.33154L13.7512 1.82217C14.6095 2.14286 15.4138 2.59274 16.1362 3.15623L16.1466 6.17498C16.147 6.31495 16.1866 6.45199 16.2609 6.57061C16.3191 6.66436 16.3762 6.75811 16.4297 6.85748C16.4959 6.97665 16.5931 7.07575 16.7109 7.14436L19.3922 8.67154C19.5328 9.54989 19.5344 10.4449 19.3969 11.3237H19.4006Z" fill="#18837D"/>
</svg>
